<svg width="876" height="876" viewBox="0 0 876 876" fill="none" xmlns="http://www.w3.org/2000/svg">
<mask id="mask0_27_88" style="mask-type:alpha" maskUnits="userSpaceOnUse" x="0" y="0" width="876" height="876">
<circle cx="438" cy="438" r="438" fill="#C4C4C4"/>
</mask>
<g mask="url(#mask0_27_88)">
<rect x="-36" y="-36" width="948" height="948" fill="#1E293B"/>
<path d="M875.5 438C875.5 679.625 679.625 875.5 438 875.5C196.375 875.5 0.5 679.625 0.5 438C0.5 196.375 196.375 0.5 438 0.5C679.625 0.5 875.5 196.375 875.5 438Z" stroke="black"/>
<path d="M342.573 285.491H342.073V285.991V304.391V304.891H342.573H556.258H556.758V304.391V285.991V285.491H556.258H342.573Z" fill="white" stroke="white"/>
<path d="M568.161 318.73L568.129 319.228V318.728H340.913C337.952 318.686 335.031 318.045 332.325 316.843C329.617 315.641 327.181 313.902 325.164 311.733C323.147 309.564 321.589 307.009 320.586 304.221C319.583 301.434 319.155 298.472 319.328 295.515L319.329 295.5L319.329 295.484C319.315 289.592 321.539 283.914 325.552 279.599C329.561 275.288 335.056 272.659 340.927 272.243H568.129C571.41 272.243 574.556 270.939 576.876 268.619C579.197 266.299 580.5 263.153 580.5 259.871C580.5 256.59 579.197 253.444 576.876 251.124C574.556 248.803 571.41 247.5 568.129 247.5H340.91H340.901L340.892 247.5C328.459 247.936 316.681 253.183 308.042 262.135C299.406 271.084 294.582 283.035 294.586 295.471C294.472 297.408 294.471 299.35 294.584 301.288C294.472 302.249 294.472 303.22 294.586 304.182V580.399C294.579 592.84 299.403 604.798 308.042 613.75C316.681 622.702 328.459 627.949 340.892 628.385L340.901 628.385H340.91H568.129C571.41 628.385 574.556 627.082 576.876 624.762C579.197 622.442 580.5 619.295 580.5 616.014V331.932C580.507 328.575 579.235 325.342 576.943 322.889C574.651 320.436 571.511 318.949 568.161 318.73ZM319.329 580.401V580.399V338.467C325.97 341.964 333.405 343.691 340.917 343.471H555.757V603.642H340.927C335.056 603.226 329.561 600.597 325.552 596.286C321.539 591.971 319.315 586.293 319.329 580.401Z" fill="white" stroke="white"/>
<path d="M370 416.5H507" stroke="white" stroke-width="10"/>
<path d="M370 449H507" stroke="white" stroke-width="10"/>
<path d="M370 480H507" stroke="white" stroke-width="10"/>
</g>
</svg>
